<?xml version="1.0" encoding="UTF-8" standalone="no"?>
<svg
   xmlns:dc="http://purl.org/dc/elements/1.1/"
   xmlns:cc="http://creativecommons.org/ns#"
   xmlns:rdf="http://www.w3.org/1999/02/22-rdf-syntax-ns#"
   xmlns:svg="http://www.w3.org/2000/svg"
   xmlns="http://www.w3.org/2000/svg"
   viewBox="0 0 160 160"
   height="160"
   width="160"
   version="1.1"
   id="svg2">
  <metadata
     id="metadata8">
    <rdf:RDF>
      <cc:Work
         rdf:about="">
        <dc:format>image/svg+xml</dc:format>
        <dc:type
           rdf:resource="http://purl.org/dc/dcmitype/StillImage" />
        <dc:title></dc:title>
      </cc:Work>
    </rdf:RDF>
  </metadata>
  <defs
     id="defs6" />
  <g
     transform="translate(0.23054305,0.24418923)"
     id="g4138">
    <path
       id="path4216"
       d="m 0,80 0,-80 80,0 80,0 0,80 0,80 -80,0 -80,0 0,-80 z"
       style="fill:#fdfdfd" />
    <path
       id="path4214"
       d="m 57.104602,142.75371 c -1.640912,-1.81319 -2.100033,-5.72961 -2.381233,-20.3125 L 54.375,104.375 49.04248,103.66331 c -3.663869,-0.489 -6.604433,-1.94449 -9.397179,-4.651324 -2.235561,-2.166791 -5.85403,-4.5634 -8.04104,-5.325796 C 28.74072,92.687954 27.234565,91.108263 26.222495,88.041661 25.418252,85.604781 23.244191,82.854159 21.139844,81.61109 16.468923,78.851909 15.013942,73.718999 15.013942,60 c 0,-13.718999 1.45498,-18.851909 6.125902,-21.61109 2.113341,-1.248381 4.278776,-3.994805 5.091597,-6.457678 1.045773,-3.16872 2.481683,-4.637718 5.510263,-5.637241 2.252762,-0.743479 5.703613,-3.029836 7.668557,-5.080796 C 44.156164,16.25954 49.297834,15.013942 65,15.013942 c 15.702166,0 20.843836,1.245598 25.589739,6.199253 1.964943,2.05096 5.415795,4.337317 7.668557,5.080796 3.028584,0.999523 4.464494,2.468521 5.510264,5.637241 0.81749,2.477034 2.97992,5.210282 5.12434,6.477021 3.798,2.243531 4.55527,3.949792 5.14467,11.591747 l 0.33743,4.375 18.06621,0.348369 c 14.58289,0.2812 18.49931,0.740321 20.3125,2.381233 C 154.82816,58.981959 155,62.26337 155,100 c 0,37.99946 -0.16016,41.00747 -2.28593,42.93126 C 150.67485,144.77674 145.50212,145 104.78281,145 62.443435,145 58.990234,144.83731 57.104602,142.75371 Z"
       style="fill:#ebf3fd" />
    <path
       id="path4212"
       d="M 58.57598,142.6143 C 55.774157,140.34919 55.59341,139.29352 55,121.72859 l -0.625,-18.50001 -5.370045,-1.55159 c -2.953525,-0.85338 -6.956918,-2.886864 -8.89643,-4.518855 -1.939511,-1.631991 -5.269911,-3.689449 -7.400888,-4.572129 -2.130976,-0.88268 -4.232098,-2.731559 -4.669161,-4.10862 C 27.601414,87.100325 25.35623,83.884305 23.049179,81.330675 17.370955,75.04556 16.25,71.528852 16.25,60 c 0,-11.528853 1.120955,-15.04556 6.799179,-21.330675 2.307051,-2.55363 4.552235,-5.76965 4.989297,-7.146711 0.437063,-1.377062 2.573539,-3.240585 4.747727,-4.141163 2.174186,-0.900577 5.779586,-3.241119 8.011997,-5.201202 C 46.24983,17.393654 50.91717,16.25 65,16.25 c 14.08283,0 18.75017,1.143654 24.2018,5.930249 2.232411,1.960083 5.837811,4.300625 8.011997,5.201202 2.174188,0.900578 4.310663,2.764101 4.747723,4.141163 0.43707,1.377061 2.81502,4.740044 5.28435,7.473294 3.10087,3.432297 4.70459,6.57956 5.18441,10.17432 L 113.125,54.375 131.6768,55 c 17.61951,0.593591 18.6717,0.773297 20.9375,3.57598 2.23259,2.76159 2.3857,5.432659 2.3857,41.61932 l 0,38.66834 -3.06819,3.06817 -3.06817,3.06819 -43.66834,0 c -41.106809,0 -43.841441,-0.13994 -46.61932,-2.3857 z"
       style="fill:#e2edfd" />
    <path
       id="path4210"
       d="M 58.068181,141.93181 C 55.092767,138.9564 55,138.31567 55,120.74057 l 0,-18.12306 -4.472821,-1.23501 C 48.067127,100.70325 44.128095,98.678266 41.773774,96.882537 39.419452,95.08681 35.786981,93.02279 33.701617,92.295828 31.295519,91.457057 29.046343,89.281081 27.546382,86.340917 26.246369,83.792679 24.260769,80.942604 23.133939,80.007419 18.696362,76.324556 17.029696,70.861852 17.029696,60 c 0,-10.861852 1.666666,-16.324556 6.104243,-20.007419 1.12683,-0.935185 3.11243,-3.78526 4.412443,-6.333499 1.522959,-2.985246 3.745549,-5.11489 6.248878,-5.987553 2.136867,-0.744917 6.092708,-3.102762 8.790756,-5.239655 3.753507,-2.972832 6.961417,-4.190398 13.659763,-5.184575 12.736492,-1.89037 24.760735,0.109762 31.168205,5.184575 2.698049,2.136893 6.65074,4.493641 8.78376,5.237215 2.286337,0.797021 4.703406,2.96385 5.888576,5.278932 1.1057,2.159839 3.53578,5.678921 5.40019,7.820185 1.89751,2.179289 3.75373,6.168899 4.21643,9.0625 L 112.52954,55 l 18.16705,0 c 17.6218,0 18.25913,0.09209 21.23522,3.068181 L 155,61.136364 155,100 l 0,38.86364 -3.06819,3.06817 L 148.86364,145 105,145 l -43.863636,0 -3.068183,-3.06819 z"
       style="fill:#eaeaea" />
    <path
       id="path4208"
       d="M 59.82598,141.36441 C 57.034039,139.1074 56.841316,138.0128 56.25,121.05399 l -0.625,-17.92483 -4.95431,-1.61973 C 47.94582,100.61859 43.866163,98.47848 41.604785,96.753644 39.343407,95.028807 35.786981,93.02279 33.701617,92.295828 31.295519,91.457057 29.046343,89.281081 27.546382,86.340917 26.246369,83.792679 24.260769,80.942604 23.133939,80.007419 18.696362,76.324556 17.029696,70.861852 17.029696,60 c 0,-10.861852 1.666666,-16.324556 6.104243,-20.007419 1.12683,-0.935185 3.11243,-3.78526 4.412443,-6.333499 1.522959,-2.985246 3.745549,-5.11489 6.248878,-5.987553 2.136867,-0.744917 6.092708,-3.102762 8.790756,-5.239655 10.040019,-7.951843 34.787949,-7.951843 44.827968,0 2.698049,2.136893 6.65074,4.493641 8.78376,5.237215 2.303742,0.803088 4.681946,2.946225 5.857936,5.278932 1.08885,2.159839 3.34415,5.387383 5.01179,7.17232 1.66763,1.784939 3.71279,6.003689 4.5448,9.375 L 113.125,55.625 131.05191,56.25 c 16.961,0.591324 18.05545,0.784001 20.3125,3.57598 2.2286,2.756786 2.38559,5.413355 2.38559,40.36932 l 0,37.41834 -3.06819,3.06817 -3.06817,3.06819 -42.41834,0 c -39.87603,0 -42.595205,-0.14298 -45.36932,-2.38559 z"
       style="fill:#d5e5fd" />
    <path
       id="path4206"
       d="M 59.318181,140.68181 C 56.351356,137.71499 56.25,137.03264 56.25,120.02588 l 0,-17.58776 -3.4375,-1.19922 C 50.921875,100.57932 47.96875,99.206151 46.25,98.187408 44.53125,97.168664 40.172721,94.792974 36.56438,92.908097 32.95604,91.023221 29.672029,88.435854 29.266577,87.158393 28.861128,85.880931 26.889675,82.968197 24.885574,80.685651 19.66595,74.740829 17.5,68.674396 17.5,60 c 0,-8.674396 2.16595,-14.740829 7.385574,-20.685651 2.004101,-2.282547 3.975554,-5.19528 4.381003,-6.472742 0.405452,-1.277461 3.689463,-3.839313 7.297803,-5.693003 3.608341,-1.85369 8.148744,-4.64233 10.089782,-6.196975 C 49.872949,18.373592 51.486401,18.125 65,18.125 c 13.513599,0 15.127051,0.248592 18.345838,2.826629 1.941038,1.554645 6.481441,4.343285 10.089782,6.196975 3.60834,1.85369 6.8766,4.365923 7.26281,5.58274 0.3862,1.216816 2.59227,4.47468 4.90237,7.239696 2.31011,2.765017 4.59118,6.855802 5.06904,9.090632 1.50214,7.025104 1.96003,7.188328 20.16503,7.188328 16.14783,0 16.89414,0.115375 19.84694,3.068181 l 3.06819,3.068183 0,37.613636 0,37.61364 -3.06819,3.06817 -3.06817,3.06819 -42.61364,0 -42.613636,0 -3.068183,-3.06819 z"
       style="fill:#c5dbfd" />
    <path
       id="path4204"
       d="M 59.82598,141.3643 C 57.024616,139.09956 56.843312,138.04205 56.25,120.50613 l -0.625,-18.47248 -6.25,-3.453711 c -3.4375,-1.899543 -9.156411,-4.860613 -12.708691,-6.580155 -3.665952,-1.774567 -6.813684,-4.244921 -7.279672,-5.713118 -0.451538,-1.422671 -2.768853,-5.138531 -5.14959,-8.257465 -8.152755,-10.68069 -8.152755,-25.377712 0,-36.058402 2.380737,-3.118934 4.702557,-6.848985 5.1596,-8.289004 0.480997,-1.515486 3.17636,-3.623558 6.399618,-5.005208 3.062746,-1.312846 7.452516,-3.823903 9.755045,-5.580128 9.41966,-7.184725 29.305021,-6.676137 40.516874,1.03626 3.439244,2.365783 7.644106,4.650526 9.344137,5.077207 2.020877,0.507208 4.540109,3.212186 7.276819,7.813351 2.30223,3.870663 4.89791,8.233253 5.76819,9.694645 0.87029,1.461393 2.12199,4.203953 2.78157,6.094578 l 1.19922,3.4375 17.58776,0 c 17.00676,0 17.68911,0.101363 20.65593,3.068181 l 3.06819,3.068183 0,37.613636 0,37.61364 -3.06819,3.06817 -3.06817,3.06819 -42.41834,0 c -39.876771,0 -42.595154,-0.14294 -45.36932,-2.3857 z"
       style="fill:#b9d4fd" />
    <path
       id="path4202"
       d="M 59.318181,140.68181 C 56.342308,137.70595 56.25,137.0675 56.25,119.46099 l 0,-18.15264 -4.6875,-2.379052 C 31.031921,88.509401 30.41998,87.94775 20.939442,70.822825 c -2.889126,-5.218699 -2.889126,-16.426951 0,-21.64565 9.530163,-17.214563 8.712998,-16.45603 30.26236,-28.091034 6.77428,-3.657591 21.746025,-3.26686 28.914093,0.7546 3.030008,1.699908 8.74348,4.801755 12.696605,6.892994 3.953125,2.091239 7.1875,4.30013 7.1875,4.908648 0,0.608517 1.91975,3.959134 4.26612,7.445817 2.34636,3.486683 4.92123,8.324458 5.72194,10.750611 l 1.45582,4.411189 18.08488,0 c 17.53456,0 18.17824,0.09336 21.15305,3.068181 l 3.06819,3.068183 0,37.613636 0,37.61364 -3.06819,3.06817 -3.06817,3.06819 -42.61364,0 -42.613636,0 -3.068183,-3.06819 z"
       style="fill:#d3d3d3" />
    <path
       id="path4200"
       d="M 60.551412,140.72935 C 58.393079,139.15432 58.055948,136.91299 57.5,120.44282 l -0.625,-18.51587 -6.25,-3.46777 C 47.1875,96.55191 41.404679,93.461485 37.774287,91.591569 32.690632,88.973117 30.248661,86.646264 27.149287,81.467439 19.271455,68.304169 18.753885,66.980719 18.753885,60 c 0,-6.986164 0.617826,-8.567127 8.328059,-21.310781 C 31.03651,32.15302 31.980021,31.46443 51.201802,21.086141 54.341671,19.390854 58.12681,18.75 65,18.75 c 6.87319,0 10.658329,0.640854 13.798197,2.336141 19.029085,10.274248 20.193412,11.114 23.814563,17.175904 2.0084,3.362125 4.19726,6.956705 4.86414,7.987955 0.66687,1.03125 2.04117,3.984375 3.05401,6.5625 l 1.84152,4.6875 17.56378,0 c 15.89713,0 17.80101,0.23723 20.06379,2.5 2.38889,2.388889 2.5,4.166666 2.5,40 0,35.83334 -0.11112,37.61111 -2.5,40 -2.40141,2.40141 -4.16666,2.5 -44.76109,2.5 -34.483222,0 -42.70765,-0.32588 -44.687498,-1.77065 z"
       style="fill:#a7c9fd" />
    <path
       id="path4198"
       d="m 60,140 c -2.268591,-2.26859 -2.5,-4.16666 -2.5,-20.50568 l 0,-18.00567 -7.1875,-4.14723 c -3.953125,-2.280974 -9.560626,-5.211306 -12.461112,-6.511849 -3.885183,-1.742066 -6.268963,-4.054865 -9.054203,-8.784596 -2.079325,-3.530986 -5.025133,-7.97486 -6.54624,-9.875275 -4.003498,-5.001817 -4.003498,-19.337582 0,-24.3394 1.521107,-1.900415 4.45677,-6.326311 6.523694,-9.835326 2.799006,-4.75187 5.109601,-6.968711 9.054202,-8.686826 2.912888,-1.26874 7.721848,-4.002639 10.686578,-6.075332 5.011188,-3.503403 6.170926,-3.76853 16.484581,-3.76853 10.313655,0 11.473393,0.265127 16.484581,3.76853 2.96473,2.072693 7.77369,4.806591 10.686578,6.075331 5.342418,2.32695 7.896311,5.681223 16.578841,21.774565 l 3.125,5.792288 18.54185,0.625 c 16.49594,0.556038 18.73721,0.89273 20.3125,3.051412 1.43366,1.964629 1.77065,9.517762 1.77065,39.687498 0,35.59443 -0.11188,37.37291 -2.5,39.76109 -2.40196,2.40196 -4.16666,2.5 -45,2.5 -40.833334,0 -42.598039,-0.098 -45,-2.5 z"
       style="fill:#9ac2fd" />
    <path
       id="path4196"
       d="m 60,140 c -2.269626,-2.26963 -2.5,-4.16666 -2.5,-20.58659 l 0,-18.08659 -6.657276,-4.258606 C 47.181221,94.725979 41.596158,91.664239 38.431471,90.264347 34.54972,88.547265 31.976034,86.362611 30.521664,83.55017 29.335956,81.257264 26.483519,76.644849 24.182915,73.300359 20.623765,68.126265 20,66.142887 20,60 c 0,-6.142888 0.623765,-8.126265 4.182915,-13.300359 2.300604,-3.34449 5.153041,-7.956905 6.338749,-10.249811 1.448298,-2.800701 4.025776,-4.996086 7.85349,-6.689266 3.13371,-1.386189 8.2664,-4.149394 11.405976,-6.140454 C 54.789327,20.444006 56.655919,20 65,20 c 8.344081,0 10.210672,0.444006 15.21887,3.62011 3.139576,1.99106 8.216852,4.729754 11.282837,6.085984 5.649563,2.49907 9.137173,7.081097 16.959903,22.281916 l 2.83661,5.51199 18.10089,0 c 16.43423,0 18.33108,0.230191 20.60089,2.5 2.38889,2.388889 2.5,4.166666 2.5,40 0,35.83334 -0.11112,37.61111 -2.5,40 -2.40196,2.40196 -4.16666,2.5 -45,2.5 -40.833334,0 -42.598039,-0.098 -45,-2.5 z"
       style="fill:#8bb8fd" />
    <path
       id="path4194"
       d="m 60,140 c -2.276724,-2.27673 -2.5,-4.16666 -2.5,-21.16144 l 0,-18.66144 -5.848951,-3.947412 C 48.434125,94.058632 43.231,91.286989 40.088549,90.0705 36.444403,88.659799 33.46952,86.413237 31.875,83.867825 30.5,81.672843 27.490625,77.023921 25.1875,73.53689 21.656504,68.190808 21,66.068534 21,60 c 0,-6.068534 0.656504,-8.190808 4.1875,-13.53689 2.303125,-3.487031 5.3125,-8.137114 6.6875,-10.333514 1.45262,-2.320391 4.594759,-4.833694 7.5,-5.999026 2.75,-1.103064 7.778282,-3.668254 11.173961,-5.700423 5.203548,-3.114102 7.494279,-3.694853 14.574076,-3.694853 7.224777,0 9.274725,0.543687 14.65094,3.885727 3.437954,2.13715 8.305832,4.628826 10.817504,5.537059 5.908401,2.136505 7.953159,4.77177 17.093099,22.02942 l 2.81358,5.3125 18.50093,0 c 16.83425,0 18.72612,0.225214 21.00091,2.5 2.38889,2.388889 2.5,4.166666 2.5,40 0,35.83334 -0.11112,37.61111 -2.5,40 -2.40196,2.40196 -4.16666,2.5 -45,2.5 -40.833334,0 -42.598039,-0.098 -45,-2.5 z"
       style="fill:#b4b4b3" />
    <path
       id="path4192"
       d="m 61.801412,139.47935 c -2.157336,-1.5743 -2.495721,-3.8158 -3.051412,-20.21287 l -0.625,-18.44221 -5.972216,-4.196656 c -3.284719,-2.308158 -8.628469,-5.22541 -11.875,-6.482781 C 36.454589,88.664121 33.494234,86.452691 31.875,83.867825 30.5,81.672843 27.490625,77.023921 25.1875,73.53689 21.656504,68.190808 21,66.068534 21,60 c 0,-6.068534 0.656504,-8.190808 4.1875,-13.53689 2.303125,-3.487031 5.3125,-8.137114 6.6875,-10.333514 1.45262,-2.320391 4.594759,-4.833694 7.5,-5.999026 2.75,-1.103064 7.778282,-3.668254 11.173961,-5.700423 5.203548,-3.114102 7.494279,-3.694853 14.574076,-3.694853 7.224777,0 9.274725,0.543687 14.65094,3.885727 3.437954,2.13715 8.305832,4.628826 10.817504,5.537059 5.964554,2.15681 7.197044,3.754827 17.472499,22.65442 l 3.22813,5.9375 17.47895,0 c 15.81228,0 17.71733,0.238382 19.97894,2.5 2.38506,2.385058 2.5,4.166666 2.5,38.75 0,34.58334 -0.11487,36.36494 -2.5,38.75 -2.3984,2.3984 -4.16666,2.5 -43.51109,2.5 -33.404851,0 -41.461108,-0.3284 -43.437498,-1.77065 z"
       style="fill:#70a9fd" />
    <path
       id="path4190"
       d="m 61.25,138.75 c -2.269049,-2.26905 -2.5,-4.16666 -2.5,-20.54131 l 0,-18.04132 -5.3125,-4.261535 C 50.515625,93.561989 45.59375,90.661696 42.5,89.460741 c -7.251115,-2.81479 -8.331305,-3.77379 -11.975841,-10.632223 -1.66695,-3.136936 -4.262494,-7.248176 -5.767874,-9.13609 -3.608781,-4.525816 -3.765745,-14.201997 -0.30917,-19.059133 1.335338,-1.876398 4.121531,-6.302131 6.191542,-9.834964 3.056467,-5.216387 5.181148,-7.127956 11.307515,-10.173331 4.149122,-2.0625 9.180738,-4.875 11.181369,-6.25 2.739491,-1.882806 5.683348,-2.5 11.924359,-2.5 6.953811,0 9.073965,0.541631 13.179974,3.367063 2.69122,1.851883 7.559741,4.501515 10.818937,5.888067 3.86346,1.643624 6.763029,3.952076 8.331411,6.632938 1.323079,2.261563 4.763968,7.908807 7.646418,12.549432 l 5.24081,8.4375 17.99027,0 c 16.32362,0 18.22189,0.231606 20.49028,2.5 2.38506,2.385058 2.5,4.166666 2.5,38.75 0,34.58334 -0.11488,36.36494 -2.5,38.75 -2.39899,2.39899 -4.16666,2.5 -43.75,2.5 -39.583334,0 -41.35101,-0.101 -43.75,-2.5 z"
       style="fill:#4e94fd" />
    <path
       id="path4188"
       d="M 61.801412,139.47937 C 59.621809,137.88885 59.311426,135.64957 58.75,117.46479 L 58.125,97.22083 54.12514,93.884176 c -2.199924,-1.83516 -6.137424,-4.083187 -8.75,-4.995618 -7.530445,-2.629975 -10.13961,-4.775992 -13.493806,-11.098542 -1.725898,-3.253258 -4.3382,-7.417525 -5.805119,-9.253925 -3.589795,-4.493978 -3.589795,-12.578203 0,-17.072182 1.466919,-1.8364 4.030994,-5.905491 5.697944,-9.042426 C 35.413681,35.572484 36.48812,34.616149 43.75,31.76204 46.84375,30.546115 51.287672,28.114733 53.625384,26.358968 57.023884,23.806483 59.30364,23.166666 65,23.166666 c 5.69636,0 7.976116,0.639817 11.374616,3.192302 2.337711,1.755765 6.781634,4.187147 9.875384,5.403072 7.412888,2.913459 8.124205,3.588905 12.576499,11.942263 2.088251,3.917956 5.424861,8.906037 7.414691,11.084627 l 3.61788,3.96107 18.19547,0 c 16.5288,0 18.42446,0.228995 20.69546,2.5 2.38506,2.385058 2.5,4.166666 2.5,38.75 0,34.58334 -0.11487,36.36494 -2.5,38.75 -2.3984,2.3984 -4.16666,2.5 -43.51109,2.5 -33.404581,0 -41.461122,-0.32841 -43.437498,-1.77063 z"
       style="fill:#3485fd" />
    <path
       id="path4186"
       d="M 61.801412,139.47914 C 59.617371,137.88516 59.31257,135.64575 58.75,117.06009 l -0.625,-20.648184 -3.613178,-3.77022 c -1.987247,-2.07362 -5.362247,-4.146545 -7.5,-4.6065 C 39.7537,86.473543 36.322414,83.811283 32.993605,77.158758 c -1.79816,-3.593567 -4.460173,-7.831092 -5.915584,-9.416723 -3.568524,-3.887808 -3.568524,-11.596263 0,-15.48407 1.455411,-1.585631 4.117424,-5.823156 5.915584,-9.416722 C 36.07593,36.681308 41.048814,32.5 45.292577,32.5 c 0.9167,0 4.72254,-1.96875 8.457423,-4.375 8.921846,-5.748025 13.578154,-5.748025 22.5,0 3.734882,2.40625 7.540722,4.375 8.457423,4.375 4.243082,0 9.375648,4.220658 11.9872,9.857424 1.514841,3.26963 4.574827,8.15491 6.799967,10.856178 l 4.0457,4.911398 20.08422,0.625 c 18.02634,0.56096 20.26565,0.873618 21.85486,3.051412 1.43038,1.960148 1.77063,9.346372 1.77063,38.437498 0,34.34443 -0.11575,36.12679 -2.5,38.51109 -2.3984,2.3984 -4.16666,2.5 -43.51109,2.5 -33.407269,0 -41.460964,-0.32834 -43.437498,-1.77086 z"
       style="fill:#908f8f" />
    <path
       id="path4184"
       d="M 61.964286,138.03571 C 60.387371,136.4588 59.996289,132.94605 59.98118,120.22321 59.960942,103.17688 58.63009,97.069617 53.819994,91.949505 52.233821,90.261102 49.17856,88.501507 47.030522,88.039294 39.752915,86.473301 36.324792,83.816036 32.993605,77.158757 c -1.79816,-3.593566 -4.460173,-7.831091 -5.915584,-9.416722 -3.568524,-3.887808 -3.568524,-11.596263 0,-15.48407 1.455411,-1.585631 4.117424,-5.823156 5.915584,-9.416723 C 36.07593,36.681308 41.048814,32.5 45.292577,32.5 c 0.9167,0 4.72254,-1.96875 8.457423,-4.375 8.921846,-5.748025 13.578154,-5.748025 22.5,0 3.734882,2.40625 7.540722,4.375 8.457423,4.375 4.263013,0 9.375868,4.221134 12.01655,9.920771 3.601937,7.774405 8.932467,14.051808 13.600807,16.016729 2.31779,0.975569 9.72888,1.5625 19.72945,1.5625 12.89442,0 16.40016,0.382965 17.98148,1.964286 C 149.73068,63.659241 150,68.874459 150,100 c 0,31.12554 -0.26932,36.34076 -1.96429,38.03571 C 146.32971,139.74171 140.671,140 105,140 69.329004,140 63.67029,139.74171 61.964286,138.03571 Z"
       style="fill:#257bfd" />
    <path
       id="path4182"
       d="M 62.5,138.77992 C 61.046787,137.86397 60.43437,133.5801 59.777582,119.73656 59.311503,109.9127 58.708377,100.38201 58.437302,98.557241 57.532894,92.469112 54.203482,89.059228 47.165824,87.013325 39.845716,84.885311 36.070625,81.611474 33.293481,74.982941 32.28927,72.586074 30.01311,68.9375 28.235349,66.875 26.457586,64.8125 25.003054,61.71875 25.003054,60 c 0,-1.71875 1.454532,-4.8125 3.232295,-6.875 1.777761,-2.0625 4.053921,-5.711074 5.058132,-8.107941 2.717659,-6.486552 6.483635,-9.854018 13.275963,-11.871123 3.350177,-0.994896 7.785737,-3.234734 9.8568,-4.977419 5.105101,-4.295658 12.042411,-4.295658 17.147512,0 2.071063,1.742685 6.506623,3.982523 9.8568,4.977419 7.086614,2.104498 10.457019,5.296928 13.834603,13.104064 2.756371,6.371234 7.677681,11.467929 11.813541,12.23455 1.53797,0.285076 10.834,0.883299 20.65786,1.329385 13.87334,0.629966 18.12544,1.229724 19.04336,2.686065 0.67013,1.0632 1.19008,17.395832 1.20094,37.72321 0.0165,30.93974 -0.24982,36.11718 -1.94515,37.8125 -1.70639,1.70639 -7.32741,1.96178 -42.8125,1.94515 C 81.754637,139.96986 63.577246,139.4589 62.5,138.77992 Z"
       style="fill:#476ede" />
    <path
       id="path4180"
       d="M 62.5,138.77992 C 61.021059,137.84775 60.49298,133.69317 60,119.11156 59.65625,108.94395 59.872267,100.26396 60.48004,99.822684 61.087812,99.381409 59.7412,96.725905 57.48757,93.921562 54.399826,90.079279 51.802922,88.361365 46.949659,86.950484 39.835842,84.882441 36.051646,81.566174 33.293481,74.982941 32.28927,72.586074 30.01311,68.9375 28.235349,66.875 26.457586,64.8125 25.003054,61.71875 25.003054,60 c 0,-1.71875 1.454532,-4.8125 3.232295,-6.875 1.777761,-2.0625 4.053921,-5.711074 5.058132,-8.107941 2.717659,-6.486552 6.483635,-9.854018 13.275963,-11.871123 3.350177,-0.994896 7.785737,-3.234734 9.8568,-4.977419 5.105101,-4.295658 12.042411,-4.295658 17.147512,0 2.071063,1.742685 6.506623,3.982523 9.8568,4.977419 6.971875,2.070424 10.56688,5.391963 13.524948,12.496123 2.382851,5.72271 11.071346,15.713425 12.625476,14.517779 0.57421,-0.441757 9.36297,-0.517813 19.53058,-0.169016 14.57423,0.499967 18.73666,1.030985 19.66836,2.509178 0.67013,1.0632 1.19008,17.395832 1.20094,37.72321 0.0165,30.93974 -0.24982,36.11718 -1.94515,37.8125 -1.70639,1.70639 -7.32741,1.96178 -42.8125,1.94515 C 81.754637,139.96986 63.577246,139.4589 62.5,138.77992 Z"
       style="fill:#1774fd" />
    <path
       id="path4178"
       d="M 62.5,138.77992 C 61.021059,137.84775 60.49298,133.69317 60,119.11156 59.65625,108.94395 59.831124,100.28939 60.388608,99.879192 60.946091,99.468997 59.787489,96.385079 57.813935,93.026039 54.617614,87.585815 53.619586,86.81523 48.677214,85.971504 41.168626,84.68969 37.349572,81.559325 34.375,74.2484 33,70.868915 30.609375,66.843009 29.0625,65.301941 c -3.595929,-3.582429 -3.57227,-7.195699 0.06989,-10.674127 1.585317,-1.514048 3.879531,-5.41864 5.098253,-8.676874 2.639145,-7.055709 6.848744,-10.694231 13.626664,-11.778064 2.901426,-0.463957 6.774797,-2.371269 9.276782,-4.568041 5.582216,-4.90125 10.149601,-4.90125 15.731818,0 2.615445,2.296391 6.368962,4.103061 9.596837,4.61922 6.619081,1.058434 11.836589,6.031726 13.738703,13.09564 1.053181,3.911215 2.640826,6.033109 6.351363,8.488629 2.72096,1.800641 4.94719,3.830519 4.94719,4.51084 0,0.741495 0.62585,0.797397 1.5625,0.139566 0.85938,-0.60356 9.88145,-0.81306 20.04906,-0.465556 14.57613,0.498177 18.73654,1.028442 19.66836,2.506826 0.67013,1.0632 1.19008,17.395832 1.20094,37.72321 0.0165,30.93974 -0.24982,36.11718 -1.94515,37.8125 -1.70639,1.70639 -7.32741,1.96178 -42.8125,1.94515 C 81.754637,139.96986 63.577246,139.4589 62.5,138.77992 Z"
       style="fill:#0a71fe" />
    <path
       id="path4176"
       d="m 62.5,138.77992 c -1.478941,-0.93217 -2.00702,-5.08675 -2.5,-19.66836 -0.34375,-10.16761 -0.214649,-18.79388 0.286891,-19.169504 0.50154,-0.37562 -0.90471,-4.167088 -3.125,-8.425487 -3.912265,-7.503518 -4.162479,-7.719294 -8.104907,-6.989408 -2.748668,0.508876 -5.099088,0.07755 -7.247177,-1.32993 -3.936593,-2.579356 -8.048901,-9.142559 -8.055135,-12.855915 -0.0027,-1.586325 -1.348843,-3.664419 -3.129672,-4.831262 -4.228913,-2.77089 -4.228913,-8.249218 0,-11.020108 1.852745,-1.213965 3.125,-3.232843 3.125,-4.958908 0,-7.236606 9.930832,-15.774983 18.352382,-15.779096 C 55.093741,33.750481 56.741736,32.820346 58.75,30 c 3.655307,-5.133406 8.844693,-5.133406 12.5,0 1.938684,2.722631 3.685285,3.75 6.375266,3.75 C 86.025359,33.75 95,40.636848 95,47.082804 c 0,4.063932 -2.690378,4.797327 -7.699679,2.098928 -4.634616,-2.496564 -16.275325,-3.192383 -23.862821,-1.42639 -3.547255,0.825625 -4.6875,1.717613 -4.6875,3.666925 0,2.492342 0.557584,2.565186 17.1875,2.245404 19.708017,-0.378971 25.2488,0.453154 29.54807,4.43759 1.68679,1.563258 3.53321,2.484333 4.10316,2.046835 0.56995,-0.437498 9.35522,-0.510071 19.52283,-0.161274 14.57423,0.499967 18.73666,1.030985 19.66836,2.509178 0.67013,1.0632 1.19008,17.395832 1.20094,37.72321 0.0165,30.93974 -0.24982,36.11718 -1.94515,37.8125 -1.70639,1.70639 -7.32741,1.96178 -42.8125,1.94515 C 81.754637,139.96986 63.577246,139.4589 62.5,138.77992 Z M 53.75,68.676229 C 53.75,59.662967 53.525466,58.75 51.308755,58.75 c -1.756232,0 -2.806525,1.31531 -3.743029,4.6875 -0.715981,2.578125 -1.304921,5.725666 -1.308755,6.994538 -0.0091,3.00429 4.844734,9.807156 6.338613,8.883888 C 53.230512,78.923519 53.75,74.135655 53.75,68.676229 Z"
       style="fill:#096bfd" />
    <path
       id="path4174"
       d="m 62.5,138.77992 c -1.478941,-0.93217 -2.00702,-5.08675 -2.5,-19.66836 -0.366004,-10.82584 -0.140315,-18.83558 0.544623,-19.328791 0.693441,-0.499339 0.517287,-1.628245 -0.432681,-2.772886 -0.881266,-1.061862 -2.313613,-4.339108 -3.182995,-7.282769 -1.561126,-5.285866 -1.652009,-5.35285 -7.34242,-5.411586 -4.237656,-0.04374 -6.57165,-0.820354 -8.823621,-2.935972 -6.479542,-6.087215 -7.598096,-16.993126 -1.656224,-16.148205 2.107274,0.29965 3.039588,1.614669 3.904344,5.507036 0.891672,4.013523 1.967149,5.46904 5,6.766845 2.125185,0.909402 4.426474,1.702127 5.113974,1.761613 0.6875,0.05949 1.559771,-4.259652 1.938381,-9.598083 0.9779,-13.788495 1.21394,-13.94741 21.478499,-14.460581 19.293097,-0.488571 26.53343,0.367125 29.67322,3.506921 1.2567,1.256694 2.76303,1.915143 3.3474,1.46322 0.58438,-0.451922 9.38145,-0.536297 19.54906,-0.1875 14.57423,0.499967 18.73667,1.030985 19.66837,2.509178 0.67012,1.0632 1.19007,17.395832 1.20093,37.72321 0.0165,30.93974 -0.24982,36.11718 -1.94515,37.8125 -1.70639,1.70639 -7.32741,1.96178 -42.8125,1.94515 C 81.754637,139.96986 63.577246,139.4589 62.5,138.77992 Z M 28.75,60 c 0,-1.388889 0.833334,-2.5 1.875,-2.5 1.041666,0 1.875,1.111111 1.875,2.5 0,1.388889 -0.833334,2.5 -1.875,2.5 -1.041666,0 -1.875,-1.111111 -1.875,-2.5 z m 6.777582,-8.068115 C 33.847854,45.239311 40.153054,36.667515 47.633255,35.474463 52.28427,34.732649 58.75,36.656872 58.75,38.782845 58.75,40.462502 51.076031,43.75 47.155225,43.75 c -2.42321,0 -3.127111,0.911479 -4.102649,5.3125 -0.905102,4.083264 -1.818125,5.403585 -3.945894,5.706149 -2.093056,0.297629 -2.966088,-0.39433 -3.5791,-2.836764 z m 52.22678,-4.423981 c -1.385349,-2.434586 -3.126095,-3.744859 -4.982011,-3.75 C 78.900477,43.747176 71.25,40.443895 71.25,38.782845 c 0,-2.121363 6.46161,-4.050846 11.092535,-3.312311 4.808711,0.766887 8.343432,3.562896 11.000881,8.701837 3.584849,6.932331 -1.73558,10.107549 -5.589054,3.335533 z M 61.13774,31.739734 c -1.417516,-1.708002 -1.310633,-2.271851 0.710855,-3.75 C 63.157171,27.03288 64.575304,26.25 65,26.25 c 0.424696,0 1.842829,0.78288 3.151405,1.739734 2.021488,1.478149 2.128371,2.041998 0.710855,3.75 C 67.944656,32.84538 66.206639,33.75 65,33.75 c -1.206639,0 -2.944656,-0.90462 -3.86226,-2.010266 z"
       style="fill:#0569fe" />
    <path
       id="path4172"
       d="m 62.5,138.77992 c -1.478941,-0.93217 -2.00702,-5.08675 -2.5,-19.66836 -0.34375,-10.16761 -0.207586,-18.79825 0.302586,-19.179204 0.510172,-0.380953 -0.192953,-2.890515 -1.5625,-5.576802 C 56.688805,90.332085 56.25,86.9848 56.25,75.360697 56.25,55.533078 55.265252,56.25 82.5,56.25 c 19.21053,0 21.47794,0.227941 23.625,2.375 1.30625,1.30625 2.85313,2.005245 3.4375,1.553322 0.58438,-0.451922 9.38145,-0.536297 19.54906,-0.1875 14.57423,0.499967 18.73667,1.030985 19.66837,2.509178 0.67012,1.0632 1.19007,17.395832 1.20093,37.72321 0.0165,30.93974 -0.24982,36.11718 -1.94515,37.8125 -1.70639,1.70639 -7.32741,1.96178 -42.8125,1.94515 C 81.754637,139.96986 63.577246,139.4589 62.5,138.77992 Z"
       style="fill:#5967a1" />
    <path
       id="path4170"
       d="M 61.964286,138.03571 C 60.374468,136.4459 60,132.8855 60,119.35949 c 0,-9.27047 0.531666,-17.04053 1.194006,-17.44988 0.680851,-0.42079 -0.124975,-3.218615 -1.875,-6.50995 C 56.579579,90.247504 56.25,88.103922 56.25,75.438826 56.25,55.52614 55.262201,56.25 82.435597,56.25 c 20.923523,0 21.227743,0.03906 24.592543,3.157454 2.32878,2.158237 3.8128,2.751605 4.68941,1.875 C 112.46489,60.53511 119.89961,60 129.53571,60 c 13.3658,0 16.91228,0.376555 18.5,1.964286 C 149.73068,63.659241 150,68.874459 150,100 c 0,31.12554 -0.26932,36.34076 -1.96429,38.03571 C 146.32971,139.74171 140.671,140 105,140 69.329004,140 63.67029,139.74171 61.964286,138.03571 Z"
       style="fill:#0759fd" />
    <path
       id="path4168"
       d="M 61.964286,138.03571 C 60.374468,136.4459 60,132.8855 60,119.35949 c 0,-9.19157 0.528664,-17.03868 1.17481,-17.43802 0.687316,-0.42478 0.334646,-2.659844 -0.849901,-5.386271 -1.463614,-3.368743 -2.048987,-8.715868 -2.11231,-19.295021 -0.118638,-19.819643 -1.115054,-19.001687 23.77491,-19.516708 17.548801,-0.363119 19.872201,-0.15809 24.287401,2.143243 2.868,1.494885 5.18969,2.047323 5.62744,1.33903 C 112.32079,60.528701 119.9755,60 129.35949,60 142.8855,60 146.4459,60.374468 148.03571,61.964286 149.73068,63.659241 150,68.874459 150,100 c 0,31.12554 -0.26932,36.34076 -1.96429,38.03571 C 146.32971,139.74171 140.671,140 105,140 69.329004,140 63.67029,139.74171 61.964286,138.03571 Z"
       style="fill:#0547fd" />
    <path
       id="path4166"
       d="M 61.964286,138.03571 C 60.374468,136.4459 60,132.8855 60,119.35949 c 0,-9.19157 0.503939,-17.0234 1.119863,-17.40406 0.652327,-0.40316 0.664777,-2.651899 0.02982,-5.386272 C 60.550164,93.987371 60.046226,85.587054 60.029825,77.901786 60.006213,66.836733 60.408819,63.519756 61.96429,61.964286 63.589945,60.338626 67.454724,60 84.382911,60 c 11.249886,0 21.877299,0.541006 23.616459,1.202236 2.02433,0.76965 3.42948,0.76965 3.90515,0 C 112.32024,60.529588 120.00918,60 129.35949,60 142.8855,60 146.4459,60.374468 148.03571,61.964286 149.73068,63.659241 150,68.874459 150,100 c 0,31.12554 -0.26932,36.34076 -1.96429,38.03571 C 146.32971,139.74171 140.671,140 105,140 69.329004,140 63.67029,139.74171 61.964286,138.03571 Z"
       style="fill:#6a6a69" />
    <path
       id="path4164"
       d="m 62.599964,136.99545 c -0.955959,-1.15186 -1.465408,-7.91454 -1.483106,-19.6875 -0.01483,-9.86312 -0.333241,-25.847342 -0.707583,-35.52049 -0.913685,-23.609925 -2.777349,-22.094209 26.319562,-21.405682 12.455389,0.294733 30.715993,0.586766 40.579113,0.64896 11.65252,0.07348 18.54742,0.623046 19.6875,1.569226 2.37481,1.97092 2.6146,72.289986 0.25455,74.650036 -2.36704,2.36704 -82.67473,2.12555 -84.650036,-0.25455 z"
       style="fill:#032dfd" />
    <path
       id="path4162"
       d="m 62.599964,136.99545 c -1.525433,-1.83804 -1.833083,-37.691331 -0.344157,-40.107835 0.419328,-0.680561 0.598239,-8.025327 0.39758,-16.321703 -0.27629,-11.423469 0.04003,-15.410935 1.30339,-16.430126 2.584163,-2.084727 80.551123,-3.600304 82.946433,-1.61237 1.55049,1.286788 1.84679,7.284034 1.84679,37.37964 0,26.214294 -0.40308,36.250014 -1.5,37.346944 -2.36704,2.36704 -82.67473,2.12555 -84.650036,-0.25455 z"
       style="fill:#0006fb" />
    <path
       id="path4160"
       d="m 62.58277,136.97474 c -1.02899,-1.23986 -1.357895,-7.55345 -1.090555,-20.93406 L 61.875,96.881891 l 4.96716,-1.6253 c 2.731939,-0.893916 5.852046,-2.426111 6.933573,-3.404879 1.081525,-0.978767 5.842212,-3.342682 10.579302,-5.253144 7.903882,-3.187626 8.876606,-3.994073 11.816429,-9.796537 1.761945,-3.477632 4.780816,-8.351841 6.708606,-10.831575 l 3.50507,-4.508606 19.44296,-0.146499 c 13.06441,-0.09844 20.01362,0.327105 21.18244,1.29713 2.36115,1.959581 2.5868,72.290179 0.23946,74.637519 -2.38459,2.38459 -82.676388,2.12355 -84.66723,-0.27526 z"
       style="fill:#0004d0" />
    <path
       id="path4158"
       d="m 62.576759,136.96749 c -1.033149,-1.24487 -1.362084,-7.34365 -1.090557,-20.22 L 61.875,98.310003 68.459187,96.829109 c 3.621304,-0.814493 7.558804,-2.359992 8.75,-3.434443 1.191198,-1.074451 5.673805,-3.473015 9.961353,-5.330142 7.053363,-3.055125 8.089062,-3.99705 10.878579,-9.893603 1.695671,-3.584355 3.892781,-7.189039 4.882481,-8.01041 0.98969,-0.82137 2.46974,-3.111674 3.28901,-5.089562 l 1.48958,-3.596163 18.77314,-0.159027 c 12.62003,-0.1069 19.34566,0.316125 20.5199,1.290663 2.36777,1.96507 2.60026,72.290088 0.24677,74.643578 -1.10546,1.10546 -12.24376,1.5 -42.34694,1.5 -33.841505,0 -41.100664,-0.30571 -42.326301,-1.78251 z"
       style="fill:#474746" />
    <path
       id="path4156"
       d="m 64.924665,137.22777 c -1.333566,-0.49346 -2.458272,-1.61846 -2.499349,-2.5 -0.04107,-0.88152 -0.154556,-9.44136 -0.252177,-19.02186 l -0.177493,-17.419093 6.523865,-1.469301 c 3.588125,-0.808116 7.49848,-2.348399 8.689676,-3.42285 1.191198,-1.074451 5.673805,-3.473015 9.961353,-5.330142 7.053362,-3.055125 8.089062,-3.99705 10.878579,-9.893603 1.695671,-3.584355 3.892781,-7.189039 4.882471,-8.01041 0.9897,-0.82137 2.43565,-3.02934 3.21324,-4.906601 l 1.41379,-3.4132 18.88619,0.245152 c 10.38741,0.134834 19.40189,0.760838 20.03218,1.39112 1.47862,1.478628 1.51192,71.534108 0.0348,73.011328 -1.33108,1.33108 -78.107711,2.02695 -81.587025,0.73946 z"
       style="fill:#4a483d" />
    <path
       id="path4154"
       d="m 63.268727,136.48256 c -0.357232,-0.57802 -0.733571,-9.42119 -0.83631,-19.65149 l -0.186796,-18.600551 6.398878,-1.441153 c 3.519382,-0.792634 7.373492,-2.320249 8.564688,-3.3947 1.191198,-1.074451 5.673805,-3.473015 9.961353,-5.330142 6.944275,-3.007874 8.145155,-4.076175 10.997165,-9.783059 1.760893,-3.523556 4.543135,-8.261554 6.182765,-10.528884 1.63963,-2.267331 3.15966,-4.517331 3.37784,-5 C 107.94649,62.269911 116.84375,62.15625 127.5,62.5 l 19.375,0.625 0,36.875 0,36.875 -41.47838,0.32925 c -22.813107,0.18109 -41.77066,-0.14368 -42.127893,-0.72169 z"
       style="fill:#0004b0" />
    <path
       id="path4152"
       d="m 63.055334,135.8942 c -0.346043,-0.90178 -0.47193,-9.47507 -0.279752,-19.05177 L 63.125,99.430247 69.774335,97.955274 c 3.657134,-0.811235 7.594634,-2.327539 8.75,-3.369564 1.155365,-1.042026 5.579521,-3.401422 9.831456,-5.243106 6.216388,-2.692565 8.153505,-4.241695 9.88867,-7.908059 1.186833,-2.50775 4.036099,-7.294539 6.331709,-10.63731 2.29561,-3.342771 4.17383,-6.591796 4.17383,-7.220058 0,-0.654871 8.13405,-0.995055 19.0625,-0.797235 l 19.0625,0.345058 0,36.875 0,36.875 -41.59525,0.32939 c -33.400527,0.2645 -41.719201,0.006 -42.224416,-1.31019 z"
       style="fill:#00038f" />
    <path
       id="path4150"
       d="M 63.349904,136.68324 C 62.882457,136.21579 62.5,128.03816 62.5,118.51073 l 0,-17.32261 3.206375,-1.219059 C 67.46988,99.298577 70.338221,98.75 72.080465,98.75 c 1.742244,0 6.346251,-1.851452 10.231126,-4.114338 3.884875,-2.262886 8.696988,-4.934761 10.693585,-5.9375 3.657238,-1.836753 11.452434,-12.802543 15.314104,-21.54292 l 2.08529,-4.719757 18.23522,0.344757 18.23521,0.344758 0,36.875 0,36.875 -41.3376,0.32907 c -22.735674,0.18099 -41.720049,-0.0534 -42.187496,-0.52083 z"
       style="fill:#2a2a2a" />
    <path
       id="path4148"
       d="m 65.302956,135.54422 c -1.44233,-1.05476 -1.80631,-4.80568 -1.754881,-18.08461 0.07113,-18.365474 0.09644,-18.423373 8.138516,-18.621754 1.958875,-0.04833 6.740125,-1.939308 10.625,-4.202194 3.884875,-2.262886 8.696988,-4.934761 10.693585,-5.9375 C 96.59136,86.897094 104.39955,75.992046 108.18339,67.5 l 1.9494,-4.375 16.95734,0.211227 c 9.32652,0.116175 17.48149,0.735403 18.12216,1.376061 1.49878,1.498786 1.54511,69.030312 0.0484,70.527052 -1.6599,1.6599 -77.708262,1.94987 -79.957704,0.30488 z"
       style="fill:#00026f" />
    <path
       id="path4146"
       d="m 65.237323,135.49622 c -1.538703,-1.12523 -1.833458,-4.33912 -1.602933,-17.47778 0.188668,-10.75297 0.773626,-16.41136 1.761539,-17.03959 0.813488,-0.51731 3.744536,-0.94918 6.513439,-0.95971 2.768901,-0.0105 6.425151,-0.996464 8.125,-2.190971 1.699847,-1.194507 6.335021,-3.908024 10.300386,-6.030038 C 97.818216,87.793454 102.93142,81.430439 108.85581,68.75 l 2.62804,-5.625 16.25369,0.183115 c 8.93953,0.100712 16.79051,0.719941 17.44663,1.37606 1.52499,1.524989 1.59818,69.033475 0.0765,70.555165 -1.70194,1.70194 -77.71364,1.94595 -80.023345,0.25688 z"
       style="fill:#00014f" />
    <path
       id="path4144"
       d="m 65.231926,135.49229 c -1.540406,-1.12649 -1.83717,-4.24972 -1.601411,-16.85374 0.191774,-10.2525 0.787778,-15.78796 1.766936,-16.41064 0.812652,-0.5168 4.086305,-0.94824 7.274784,-0.95877 4.481979,-0.0148 7.176136,-0.95668 11.875,-4.151525 3.342771,-2.272811 7.932416,-4.883291 10.199212,-5.801066 2.326341,-0.941884 4.996523,-3.36143 6.130563,-5.555117 1.10501,-2.137537 3.55622,-5.855182 5.44713,-8.261432 1.89091,-2.40625 3.81606,-6.196675 4.27811,-8.423165 0.46205,-2.226491 1.24423,-4.297938 1.73818,-4.603214 1.94465,-1.201861 31.556,-1.077197 32.77116,0.137966 1.59232,1.592329 1.7347,69.042123 0.14907,70.627753 -1.70537,1.70537 -77.714083,1.94562 -80.028734,0.25295 z"
       style="fill:#131313" />
    <path
       id="path4142"
       d="M 64.756992,118.76131 C 64.332284,100.70673 64.073858,101.25 73.086969,101.25 c 4.032266,0 6.907147,-1.03663 11.460266,-4.132385 3.342771,-2.272811 7.932416,-4.883291 10.199212,-5.801066 2.326341,-0.941884 4.996523,-3.36143 6.130563,-5.555117 1.10501,-2.137537 3.52883,-5.855182 5.38626,-8.261432 1.85743,-2.40625 3.87993,-6.245499 4.49444,-8.531665 0.61451,-2.286165 1.53917,-4.11429 2.05479,-4.0625 C 113.32813,64.957626 120.78125,65 129.375,65 l 15.625,0 0,35 0,35 -39.93051,0 -39.930505,0 -0.381993,-16.23869 z"
       style="fill:#00002e" />
    <path
       id="path4140"
       d="m 65,119.375 0,-15.625 6.290149,0 c 7.105241,0 14.093717,-2.51825 18.709851,-6.741963 1.71875,-1.572638 4.93442,-3.572043 7.145932,-4.443122 2.211514,-0.871079 4.363598,-2.663421 4.782408,-3.982984 0.41882,-1.319561 2.96877,-4.949527 5.66657,-8.066591 C 110.31182,77.376198 112.5,73.533398 112.5,71.90121 112.5,65.147299 112.86303,65 129.50874,65 L 145,65 l 0,35 0,35 -40,0 -40,0 0,-15.625 z"
       style="fill:#000000" />
  </g>
</svg>
